# xmcd
#
# Track frame offsets: 
#        150
#        11345
#        29465
#        36785
#        47825
#        58155
#        73045
#        86250
#        101635
#        110120
#        120880
#        136990
#        151025
#        163895
#
# Disc length: 2395 seconds
#
# Revision: 0
# Processed by: cddbd v1.4PL0 Copyright (c) Steve Scherf et al.
# Submitted via: ExactAudioCopy v0.90b3
#
DISCID=b209590e
DTITLE=Neko Case - Blacklisted
DYEAR=2002
DGENRE=Alternative
TTITLE0=Things That Scare Me
TTITLE1=Deep Red Bells
TTITLE2=Outro With Bees
TTITLE3=Lady Pilot
TTITLE4=Tightly
TTITLE5=Look For Me (I'll Be Around)
TTITLE6=Stinging Velvet
TTITLE7=Pretty Girls
TTITLE8=I Missed The Point
TTITLE9=Blacklisted
TTITLE10=I Wish I Was The Moon
TTITLE11=Runnin' Out Of Fools
TTITLE12=Ghost Writing
TTITLE13=Outro With Bees (Reprise)
EXTD=
EXTT0=
EXTT1=
EXTT2=
EXTT3=
EXTT4=
EXTT5=
EXTT6=
EXTT7=
EXTT8=
EXTT9=
EXTT10=
EXTT11=
EXTT12=
EXTT13=
PLAYORDER=
